# xmcd CD database file
#
# Track frame offsets:
#	150
#	5490
#	27973
#	41360
#	64320
#	80982
#	95154
#	111776
#	126173
#	142293
#
# Disc length: 2078 seconds
#
# Revision: 0
# Processed by: cddbd v1.5.1PL0 Copyright (c) Steve Scherf et al.
# Submitted via: CDex 1.50beta10
#
DISCID=91081c0a
DTITLE=TECHNO CIRCUS - TECHNO BLADE
DYEAR=1996
DGENRE=Techno
TTITLE0=azure(intro)
TTITLE1=LUMINOSITY
TTITLE2=JULIA
TTITLE3=THROUGH SOUND
TTITLE4=X-ZONE
TTITLE5=transporter2019
TTITLE6=BIT MAN
TTITLE7=REPLICANT
TTITLE8=BEAM GENERATOR
TTITLE9=TECHNO CIRCUS(night breese)
EXTD=YEAR: 1996
EXTT0=
EXTT1=
EXTT2=
EXTT3=
EXTT4=
EXTT5=
EXTT6=
EXTT7=
EXTT8=
EXTT9=
PLAYORDER=
